<?xml version="1.0" standalone="no"?>
<!DOCTYPE svg PUBLIC "-//W3C//DTD SVG 20010904//EN"
 "http://www.w3.org/TR/2001/REC-SVG-20010904/DTD/svg10.dtd">
<svg version="1.0" xmlns="http://www.w3.org/2000/svg"
 width="700.000000pt" height="700.000000pt" viewBox="0 0 700.000000 700.000000"
 preserveAspectRatio="xMidYMid meet">
<metadata>
Created by potrace 1.14, written by Peter Selinger 2001-2017
</metadata>
<g transform="translate(0.000000,700.000000) scale(0.100000,-0.100000)"
fill="#000000" stroke="none">
<path d="M3440 6530 c-25 -5 -63 -11 -85 -15 -189 -29 -479 -114 -685 -200
-92 -38 -304 -145 -386 -195 -74 -45 -246 -160 -254 -170 -3 -3 -21 -17 -40
-30 -140 -98 -395 -346 -559 -545 -73 -89 -216 -295 -274 -395 -147 -252 -293
-619 -341 -855 -4 -16 -9 -41 -12 -55 -3 -14 -7 -34 -9 -45 -7 -36 -24 -149
-32 -215 -10 -85 -10 -475 0 -565 50 -438 219 -861 481 -1205 195 -256 461
-492 751 -667 148 -89 156 -91 85 -27 -241 220 -413 425 -577 689 -85 137
-196 368 -256 535 -44 121 -105 332 -114 395 -2 17 -8 46 -13 65 -13 53 -31
184 -46 344 -5 54 -5 380 0 431 13 131 19 182 21 197 2 9 7 38 10 65 4 26 18
98 32 158 13 61 26 118 28 128 7 32 56 192 65 212 5 11 12 31 16 45 14 52 116
280 173 387 418 788 1204 1370 2066 1528 42 8 56 13 35 13 -19 0 -55 -4 -80
-8z"/>
<path d="M2597 5838 c-17 -47 46 -268 112 -394 21 -41 36 -76 32 -78 -3 -2
-26 -9 -51 -16 -72 -19 -266 -98 -374 -152 -237 -119 -420 -250 -601 -432
-187 -188 -320 -387 -405 -601 -35 -90 -74 -216 -85 -277 -3 -13 -7 -34 -10
-48 -12 -62 -15 -91 -22 -180 -6 -93 -7 -151 -4 -240 l2 -45 28 65 c145 333
369 556 598 595 39 7 125 7 177 0 51 -6 154 -51 221 -96 135 -91 282 -298 362
-509 27 -70 71 -211 78 -248 2 -12 6 -30 9 -40 32 -107 69 -419 70 -594 0 -37
4 -58 11 -58 7 0 45 35 86 78 97 103 262 280 289 312 12 14 54 61 93 105 40
44 117 129 171 190 55 60 104 113 109 116 6 4 21 -5 34 -20 58 -62 103 -112
183 -201 47 -52 90 -100 95 -106 17 -18 158 -174 188 -208 130 -143 251 -266
261 -266 8 0 12 17 12 48 1 351 78 731 200 991 181 384 468 572 759 496 127
-34 270 -136 366 -262 24 -32 47 -60 50 -63 13 -11 93 -156 126 -228 60 -132
133 -369 158 -514 3 -18 10 -51 15 -73 5 -22 12 -67 15 -100 4 -33 9 -69 11
-80 2 -11 7 -58 10 -105 4 -47 8 -96 10 -110 1 -14 2 -52 3 -84 1 -54 11 -70
18 -28 21 135 20 668 -2 782 -2 9 -6 41 -10 71 -5 48 -11 85 -31 194 -27 157
-101 401 -170 562 -309 728 -922 1242 -1694 1422 -235 55 -377 68 -791 72
-271 2 -378 44 -527 208 -122 135 -149 161 -165 161 -8 0 -17 -6 -20 -12z"/>
<path d="M5983 5488 c233 -341 424 -830 473 -1213 3 -27 7 -52 9 -55 10 -17
20 -227 20 -415 -1 -196 -7 -306 -20 -385 -3 -14 -7 -43 -11 -65 -3 -22 -7
-51 -10 -65 -3 -14 -7 -38 -10 -55 -3 -16 -19 -82 -34 -145 -209 -830 -770
-1535 -1534 -1930 -331 -170 -736 -287 -1101 -318 -179 -14 -498 -8 -655 14
-112 16 -279 47 -322 60 -9 3 -25 7 -35 9 -10 2 -71 19 -135 39 -305 93 -616
249 -883 444 -162 117 -273 219 -476 432 -36 38 -149 182 -204 260 -161 228
-307 516 -395 780 -23 70 -84 302 -95 360 -42 236 -50 327 -50 595 0 267 19
441 70 655 2 8 6 29 10 45 71 307 234 674 430 968 37 54 24 45 -22 -15 -214
-284 -405 -653 -497 -963 -15 -49 -32 -103 -37 -120 -13 -44 -56 -244 -64
-295 -3 -25 -10 -72 -16 -106 -29 -193 -32 -629 -5 -794 3 -14 7 -47 11 -75 5
-42 37 -213 50 -265 80 -340 204 -638 398 -954 282 -462 749 -883 1257 -1136
293 -146 660 -263 925 -295 28 -4 57 -8 65 -10 104 -28 676 -27 824 1 11 2 42
6 70 9 28 3 67 10 86 15 19 5 51 11 70 14 85 13 425 113 495 145 11 5 61 27
110 47 112 47 287 138 387 200 162 102 176 112 330 234 519 412 893 985 1071
1640 18 67 45 185 53 235 3 21 8 47 10 59 2 11 7 41 10 66 3 25 7 56 10 70 24
149 24 646 -1 764 -2 12 -6 39 -9 61 -6 43 -22 134 -31 175 -3 14 -8 39 -11
55 -3 17 -13 62 -23 100 -101 383 -277 756 -507 1072 -84 114 -117 149 -51 51z"/>
<path d="M1785 3194 c-70 -21 -152 -80 -197 -139 -56 -74 -80 -144 -80 -240 0
-160 81 -285 232 -357 58 -28 75 -31 155 -31 136 0 240 49 318 151 55 73 78
141 79 238 0 84 -8 108 -35 98 -12 -4 -47 -7 -78 -8 -46 0 -65 5 -98 27 -69
46 -102 136 -75 212 8 25 10 43 4 49 -17 17 -171 17 -225 0z"/>
<path d="M5015 3201 c-11 -5 -23 -7 -27 -4 -12 6 -10 -15 3 -39 18 -33 12
-112 -11 -157 -11 -23 -39 -53 -62 -68 -34 -23 -53 -28 -103 -28 -37 0 -69 6
-78 13 -14 12 -17 9 -22 -20 -24 -138 8 -254 97 -349 218 -232 602 -127 673
185 43 192 -72 393 -262 455 -65 21 -169 27 -208 12z"/>
<path d="M3445 3108 c-26 -29 -96 -105 -155 -168 -58 -63 -129 -139 -156 -169
-27 -29 -62 -68 -79 -85 -134 -144 -410 -448 -412 -454 -2 -4 18 -16 45 -26
26 -10 65 -27 88 -37 23 -10 160 -68 305 -129 322 -136 324 -137 376 -160 l42
-19 243 103 c134 57 322 136 418 176 96 40 180 78 187 84 10 9 1 23 -35 62
-40 43 -185 201 -257 280 -165 179 -234 255 -304 330 -31 33 -98 106 -150 162
-52 56 -98 102 -101 102 -4 0 -28 -24 -55 -52z"/>
<path d="M5991 2324 c0 -11 3 -14 6 -6 3 7 2 16 -1 19 -3 4 -6 -2 -5 -13z"/>
<path d="M2665 2106 c17 -15 57 -50 89 -79 32 -28 64 -56 70 -62 6 -5 85 -77
176 -160 90 -82 238 -222 328 -310 89 -88 167 -160 172 -160 4 0 102 90 217
201 114 111 233 224 263 251 30 28 82 75 115 105 33 31 101 90 150 133 83 72
105 95 91 95 -4 0 -96 -39 -211 -90 -107 -47 -454 -193 -535 -224 l-91 -35
-52 20 c-29 11 -61 24 -72 29 -11 6 -38 16 -60 24 -22 8 -177 73 -345 146
-363 157 -342 149 -305 116z"/>
</g>
</svg>
