<?xml version="1.0" standalone="no"?>
<!DOCTYPE svg PUBLIC "-//W3C//DTD SVG 20010904//EN"
 "http://www.w3.org/TR/2001/REC-SVG-20010904/DTD/svg10.dtd">
<svg version="1.0" xmlns="http://www.w3.org/2000/svg"
 width="153.000000pt" height="153.000000pt" viewBox="0 0 153.000000 153.000000"
 preserveAspectRatio="xMidYMid meet">
<metadata>
Created by potrace 1.14, written by Peter Selinger 2001-2017
</metadata>
<g transform="translate(0.000000,153.000000) scale(0.100000,-0.100000)"
fill="#000000" stroke="none">
<path d="M700 1456 c-103 -23 -196 -86 -259 -176 -94 -134 -122 -305 -75 -468
12 -42 13 -59 4 -87 -6 -19 -15 -35 -20 -35 -4 0 -18 -21 -31 -47 -18 -37 -22
-62 -21 -121 2 -117 27 -169 61 -128 7 8 15 56 17 108 6 104 23 167 58 218
l23 35 -23 30 c-90 119 -70 336 40 433 74 65 165 63 235 -7 l37 -37 43 38 c61
54 124 69 192 47 175 -59 232 -315 106 -473 l-24 -30 27 -40 c39 -59 60 -120
67 -191 6 -66 -10 -122 -28 -94 -6 10 -9 6 -9 -14 0 -29 -14 -47 -70 -89 -34
-25 -125 -64 -133 -57 -2 2 -11 -2 -20 -9 -13 -11 -19 -10 -37 8 -26 26 -50
80 -50 112 0 13 -5 30 -11 38 -8 12 -9 10 -4 -7 4 -13 0 -31 -8 -43 -13 -18
-14 -15 -9 32 5 49 4 52 -12 39 -15 -13 -20 -10 -45 20 -16 19 -32 31 -35 28
-4 -3 -8 -38 -11 -77 -6 -110 -22 -128 -122 -138 -80 -8 -88 -11 -73 -29 10
-12 9 -15 -6 -16 -14 0 -15 -2 -4 -5 8 -3 33 -13 54 -22 37 -16 38 -17 15 -23
-13 -4 103 -7 258 -8 178 -1 284 3 288 9 3 6 21 10 38 11 41 1 74 13 60 22 -6
4 -39 10 -73 14 -47 5 -60 9 -55 20 3 8 8 27 12 41 3 15 23 42 45 60 21 19 50
54 65 79 l27 46 23 -53 c13 -29 28 -50 35 -48 49 17 18 303 -36 324 -31 12
-39 57 -20 120 26 86 24 239 -5 324 -26 78 -96 185 -149 227 -52 42 -127 78
-190 92 -64 13 -91 13 -162 -3z"/>
<path d="M592 1008 c-27 -27 -4 -98 32 -98 19 0 46 34 46 57 0 39 -52 67 -78
41z"/>
<path d="M836 1005 c-22 -22 -20 -58 4 -80 40 -37 92 15 66 67 -14 28 -48 35
-70 13z"/>
<path d="M625 808 c-113 -14 -125 -25 -39 -34 27 -2 81 -13 119 -23 59 -17 64
-20 34 -20 -20 -1 -65 8 -102 20 -49 15 -71 18 -84 10 -10 -6 -13 -11 -6 -11
6 0 42 -19 80 -42 95 -61 143 -60 273 4 68 34 88 48 70 48 l-25 1 23 11 c12 6
22 14 22 18 0 6 -237 31 -275 29 -11 -1 -51 -6 -90 -11z"/>
<path d="M836 541 c-7 -10 63 -26 72 -16 9 9 -19 25 -45 25 -12 0 -24 -4 -27
-9z"/>
<path d="M1036 513 c-3 -4 -5 -18 -5 -32 1 -16 3 -19 6 -9 2 9 10 18 18 20 11
2 11 5 0 15 -7 6 -16 9 -19 6z"/>
</g>
</svg>
