<?xml version="1.0" encoding="UTF-8" standalone="no"?>
<!DOCTYPE svg PUBLIC "-//W3C//DTD SVG 1.1//EN" "http://www.w3.org/Graphics/SVG/1.1/DTD/svg11.dtd">
<svg width="100%" height="100%" viewBox="0 0 260 260" version="1.1" xmlns="http://www.w3.org/2000/svg" xmlns:xlink="http://www.w3.org/1999/xlink" xml:space="preserve" xmlns:serif="http://www.serif.com/" style="fill-rule:evenodd;clip-rule:evenodd;stroke-linejoin:round;stroke-miterlimit:2;">
    <g>
        <path d="M130.001,162.614c-1.505,-1.588 -10.119,-10.535 -24.886,-23.277c7.891,3.326 15.681,6.908 23.676,9.981l1.21,0.464l1.208,-0.464c7.995,-3.073 15.785,-6.655 23.676,-9.981c-14.767,12.742 -23.381,21.689 -24.884,23.277Z" style="fill:#f99426;"/>
        <path d="M41.868,214.256c-0,-1.573 -0.219,-2.935 -0.656,-4.086c-0.437,-1.151 -1.042,-2.098 -1.814,-2.841c-0.772,-0.743 -1.69,-1.297 -2.753,-1.661c-1.064,-0.364 -2.222,-0.546 -3.475,-0.546c-0.67,-0 -1.275,0.022 -1.814,0.065c-0.539,0.044 -1.056,0.095 -1.551,0.153l-0,17.963c0.495,0.117 1.056,0.197 1.683,0.241c0.626,0.043 1.245,0.065 1.857,0.065c2.71,0 4.808,-0.786 6.294,-2.36c1.486,-1.573 2.229,-3.904 2.229,-6.993Zm5.812,-0.043c0,2.36 -0.342,4.421 -1.027,6.184c-0.684,1.763 -1.653,3.22 -2.906,4.37c-1.253,1.151 -2.761,2.018 -4.524,2.601c-1.762,0.583 -3.722,0.874 -5.878,0.874c-0.495,0 -1.034,-0.007 -1.617,-0.022c-0.583,-0.014 -1.187,-0.058 -1.814,-0.131c-0.626,-0.073 -1.253,-0.167 -1.879,-0.284c-0.627,-0.117 -1.217,-0.277 -1.77,-0.481c-1.399,-0.524 -2.098,-1.398 -2.098,-2.622l-0,-21.416c-0,-0.524 0.146,-0.932 0.437,-1.224c0.291,-0.291 0.699,-0.524 1.224,-0.699c1.078,-0.379 2.251,-0.619 3.518,-0.721c1.267,-0.102 2.469,-0.153 3.606,-0.153c2.185,-0 4.188,0.284 6.009,0.852c1.821,0.568 3.373,1.421 4.655,2.557c1.282,1.136 2.28,2.564 2.994,4.283c0.714,1.719 1.07,3.73 1.07,6.032Z" style="fill-rule:nonzero;"/>
        <path d="M55.722,222.648c-0.699,-1.457 -1.529,-3.424 -2.491,-5.901c-0.961,-2.476 -1.923,-5.477 -2.884,-9.003c0.291,-0.35 0.699,-0.648 1.223,-0.896c0.525,-0.248 1.093,-0.371 1.705,-0.371c0.757,-0 1.377,0.174 1.857,0.524c0.481,0.35 0.867,0.976 1.158,1.879c1.37,4.4 2.929,8.858 4.677,13.374l0.175,0c0.379,-0.961 0.779,-2.054 1.202,-3.278c0.422,-1.223 0.83,-2.505 1.223,-3.846c0.394,-1.34 0.765,-2.695 1.115,-4.064c0.35,-1.37 0.656,-2.695 0.918,-3.977c0.349,-0.175 0.721,-0.321 1.114,-0.438c0.394,-0.116 0.809,-0.174 1.246,-0.174c0.757,-0 1.413,0.174 1.967,0.524c0.553,0.35 0.83,0.918 0.83,1.705c0,0.874 -0.189,2.105 -0.568,3.693c-0.379,1.588 -0.882,3.292 -1.508,5.113c-0.626,1.821 -1.333,3.657 -2.12,5.507c-0.786,1.85 -1.573,3.475 -2.36,4.873c-1.515,2.681 -2.892,4.684 -4.13,6.01c-1.238,1.326 -2.455,1.989 -3.649,1.989c-0.933,-0 -1.683,-0.27 -2.251,-0.809c-0.568,-0.539 -0.925,-1.216 -1.071,-2.032c0.466,-0.408 0.961,-0.882 1.486,-1.421c0.524,-0.539 1.049,-1.114 1.573,-1.726c0.525,-0.612 1.02,-1.238 1.486,-1.879c0.467,-0.641 0.874,-1.268 1.224,-1.88c-0.262,-0.087 -0.517,-0.196 -0.765,-0.328c-0.247,-0.131 -0.495,-0.327 -0.743,-0.59c-0.247,-0.262 -0.51,-0.597 -0.786,-1.005c-0.277,-0.408 -0.561,-0.932 -0.853,-1.573Z" style="fill-rule:nonzero;"/>
        <path d="M88.196,214.3c-0,-1.253 -0.357,-2.171 -1.071,-2.753c-0.714,-0.583 -1.683,-0.875 -2.907,-0.875c-0.845,0 -1.624,0.102 -2.338,0.306c-0.714,0.204 -1.333,0.467 -1.857,0.787l-0,15.821c-0.263,0.059 -0.612,0.132 -1.049,0.219c-0.437,0.087 -0.933,0.131 -1.486,0.131c-1.02,0 -1.778,-0.189 -2.273,-0.568c-0.495,-0.379 -0.743,-1.049 -0.743,-2.011l0,-14.029c0,-0.699 0.146,-1.267 0.437,-1.705c0.291,-0.437 0.743,-0.859 1.355,-1.267c0.845,-0.583 1.967,-1.071 3.365,-1.464c1.399,-0.393 2.943,-0.59 4.633,-0.59c3.001,-0 5.325,0.663 6.971,1.988c1.646,1.326 2.469,3.271 2.469,5.835l0,13.461c-0.233,0.059 -0.575,0.132 -1.027,0.219c-0.451,0.087 -0.939,0.131 -1.464,0.131c-1.049,0 -1.814,-0.189 -2.294,-0.568c-0.481,-0.379 -0.721,-1.049 -0.721,-2.011l-0,-11.057Z" style="fill-rule:nonzero;"/>
        <path d="M116.692,201.101c0.145,0.233 0.284,0.546 0.415,0.94c0.131,0.393 0.197,0.823 0.197,1.289c-0,0.787 -0.183,1.384 -0.547,1.792c-0.364,0.408 -0.867,0.612 -1.508,0.612l-6.031,-0l-0,21.852c-0.233,0.059 -0.597,0.132 -1.093,0.219c-0.495,0.087 -1.005,0.131 -1.529,0.131c-1.108,0 -1.894,-0.204 -2.36,-0.612c-0.467,-0.408 -0.7,-1.092 -0.7,-2.054l0,-19.536l-7.342,-0c-0.146,-0.263 -0.284,-0.583 -0.415,-0.962c-0.132,-0.379 -0.197,-0.801 -0.197,-1.267c-0,-0.816 0.182,-1.421 0.546,-1.814c0.364,-0.393 0.867,-0.59 1.508,-0.59l19.056,-0Z" style="fill-rule:nonzero;"/>
        <path d="M138.938,223.566c-0,0.67 -0.117,1.231 -0.35,1.682c-0.233,0.452 -0.655,0.852 -1.267,1.202c-0.845,0.525 -1.916,0.962 -3.213,1.311c-1.296,0.35 -2.775,0.525 -4.436,0.525c-1.515,-0 -2.884,-0.168 -4.108,-0.503c-1.224,-0.335 -2.273,-0.852 -3.147,-1.551c-0.874,-0.7 -1.544,-1.588 -2.01,-2.666c-0.467,-1.079 -0.7,-2.361 -0.7,-3.847l0,-12.718c0.233,-0.087 0.576,-0.167 1.027,-0.24c0.452,-0.073 0.955,-0.11 1.508,-0.11c1.02,0 1.778,0.183 2.273,0.547c0.495,0.364 0.743,1.041 0.743,2.032l-0,10.402c-0,1.515 0.386,2.601 1.158,3.256c0.772,0.656 1.872,0.984 3.3,0.984c0.903,-0 1.668,-0.088 2.294,-0.263c0.627,-0.175 1.1,-0.364 1.421,-0.568l-0,-16.04c0.233,-0.087 0.575,-0.167 1.027,-0.24c0.452,-0.073 0.94,-0.11 1.464,-0.11c1.049,0 1.814,0.183 2.295,0.547c0.48,0.364 0.721,1.041 0.721,2.032l-0,14.336Z" style="fill-rule:nonzero;"/>
        <path d="M144.751,222.56c0.757,-0.932 1.522,-1.85 2.294,-2.753c0.772,-0.903 1.552,-1.821 2.338,-2.754c-1.107,-1.311 -2.163,-2.585 -3.168,-3.824c-1.005,-1.238 -2.033,-2.513 -3.081,-3.824c0.174,-0.845 0.517,-1.522 1.027,-2.032c0.51,-0.51 1.143,-0.765 1.901,-0.765c0.728,-0 1.296,0.175 1.704,0.524c0.408,0.35 0.86,0.845 1.355,1.486c0.583,0.816 1.188,1.661 1.814,2.535c0.626,0.874 1.275,1.748 1.945,2.623c0.932,-1.224 1.828,-2.404 2.688,-3.541c0.859,-1.136 1.741,-2.331 2.644,-3.584c0.146,-0.029 0.262,-0.043 0.35,-0.043l0.306,-0c0.99,-0 1.777,0.218 2.36,0.655c0.582,0.437 0.874,1.006 0.874,1.705c-0,0.553 -0.124,1.049 -0.372,1.486c-0.247,0.437 -0.692,1.02 -1.333,1.748l-4.239,4.939c1.049,1.398 2.098,2.761 3.147,4.086c1.049,1.326 2.097,2.674 3.146,4.043c-0.116,0.845 -0.437,1.515 -0.961,2.011c-0.525,0.495 -1.166,0.743 -1.923,0.743c-0.816,-0.03 -1.472,-0.263 -1.967,-0.7c-0.495,-0.437 -0.991,-1.005 -1.486,-1.704c-0.583,-0.816 -1.18,-1.647 -1.792,-2.491c-0.612,-0.845 -1.209,-1.69 -1.792,-2.535c-0.903,1.223 -1.792,2.447 -2.666,3.671c-0.874,1.224 -1.733,2.447 -2.578,3.671l-0.787,0c-1.078,0 -1.901,-0.233 -2.469,-0.699c-0.569,-0.466 -0.853,-1.035 -0.853,-1.705c0,-0.466 0.117,-0.896 0.35,-1.289c0.233,-0.393 0.641,-0.954 1.224,-1.683Z" style="fill-rule:nonzero;"/>
        <path d="M164.899,224.92c-0,-0.961 0.299,-1.77 0.896,-2.425c0.597,-0.656 1.42,-0.984 2.469,-0.984c1.02,0 1.829,0.328 2.426,0.984c0.597,0.655 0.896,1.464 0.896,2.425c-0,0.933 -0.299,1.727 -0.896,2.382c-0.597,0.656 -1.406,0.984 -2.426,0.984c-1.049,-0 -1.872,-0.328 -2.469,-0.984c-0.597,-0.655 -0.896,-1.449 -0.896,-2.382Z" style="fill-rule:nonzero;"/>
        <path d="M188.893,214.3c0,-1.253 -0.357,-2.171 -1.07,-2.753c-0.714,-0.583 -1.683,-0.875 -2.907,-0.875c-0.845,0 -1.624,0.102 -2.338,0.306c-0.714,0.204 -1.333,0.467 -1.858,0.787l0,15.821c-0.262,0.059 -0.612,0.132 -1.049,0.219c-0.437,0.087 -0.932,0.131 -1.486,0.131c-1.019,0 -1.777,-0.189 -2.272,-0.568c-0.496,-0.379 -0.743,-1.049 -0.743,-2.011l-0,-14.029c-0,-0.699 0.145,-1.267 0.437,-1.705c0.291,-0.437 0.743,-0.859 1.355,-1.267c0.845,-0.583 1.966,-1.071 3.365,-1.464c1.399,-0.393 2.943,-0.59 4.633,-0.59c3.001,-0 5.325,0.663 6.971,1.988c1.646,1.326 2.469,3.271 2.469,5.835l0,13.461c-0.233,0.059 -0.575,0.132 -1.027,0.219c-0.451,0.087 -0.94,0.131 -1.464,0.131c-1.049,0 -1.814,-0.189 -2.295,-0.568c-0.48,-0.379 -0.721,-1.049 -0.721,-2.011l0,-11.057Z" style="fill-rule:nonzero;"/>
        <path d="M204.453,219.763c0.407,1.486 1.165,2.564 2.272,3.234c1.107,0.671 2.477,1.006 4.109,1.006c1.223,-0 2.352,-0.182 3.387,-0.547c1.034,-0.364 1.872,-0.75 2.513,-1.158c0.408,0.233 0.743,0.554 1.005,0.962c0.262,0.408 0.393,0.845 0.393,1.311c0,0.583 -0.196,1.1 -0.59,1.551c-0.393,0.452 -0.932,0.838 -1.617,1.159c-0.684,0.32 -1.493,0.568 -2.425,0.743c-0.933,0.174 -1.938,0.262 -3.016,0.262c-1.719,-0 -3.285,-0.233 -4.698,-0.7c-1.414,-0.466 -2.623,-1.172 -3.628,-2.119c-1.005,-0.947 -1.792,-2.12 -2.36,-3.519c-0.568,-1.398 -0.852,-3.03 -0.852,-4.895c-0,-1.806 0.276,-3.379 0.83,-4.72c0.554,-1.34 1.304,-2.462 2.251,-3.365c0.947,-0.903 2.047,-1.574 3.3,-2.011c1.253,-0.437 2.578,-0.655 3.977,-0.655c1.428,-0 2.739,0.226 3.933,0.677c1.195,0.452 2.215,1.078 3.06,1.88c0.845,0.801 1.508,1.762 1.988,2.884c0.481,1.122 0.721,2.338 0.721,3.65c0,0.815 -0.211,1.427 -0.633,1.835c-0.423,0.408 -1.013,0.67 -1.77,0.787l-12.15,1.748Zm4.851,-9.309c-1.428,-0 -2.623,0.473 -3.584,1.42c-0.962,0.947 -1.501,2.295 -1.617,4.043l9.703,-1.442c-0.117,-1.078 -0.54,-2.018 -1.268,-2.819c-0.728,-0.801 -1.806,-1.202 -3.234,-1.202Z" style="fill-rule:nonzero;"/>
        <path d="M228.84,221.205c0,0.933 0.284,1.603 0.852,2.011c0.569,0.408 1.363,0.612 2.382,0.612c0.496,-0 0.998,-0.058 1.508,-0.175c0.51,-0.117 0.969,-0.262 1.377,-0.437c0.233,0.233 0.43,0.517 0.59,0.852c0.16,0.335 0.24,0.721 0.24,1.158c0,0.874 -0.393,1.596 -1.18,2.164c-0.786,0.568 -2.054,0.852 -3.802,0.852c-2.302,0 -4.116,-0.517 -5.441,-1.551c-1.326,-1.035 -1.989,-2.747 -1.989,-5.136l0,-20.061c0.233,-0.058 0.575,-0.131 1.027,-0.218c0.452,-0.088 0.94,-0.131 1.464,-0.131c1.02,-0 1.77,0.189 2.251,0.568c0.481,0.379 0.721,1.049 0.721,2.01l0,3.628l6.425,-0c0.146,0.233 0.277,0.539 0.393,0.918c0.117,0.378 0.175,0.786 0.175,1.223c0,0.758 -0.175,1.312 -0.524,1.661c-0.35,0.35 -0.816,0.525 -1.399,0.525l-5.07,-0l0,9.527Z" style="fill-rule:nonzero;"/>
        <path d="M130.001,106.029l-3.366,3.683c-1.974,2.16 -17.502,19.752 -18.479,19.792c-0.328,-48.146 -31.382,-58.484 -44.112,-25.497c-2.156,-28.523 18.147,-49.164 44.508,-57.059c-2.669,-3.485 -7.767,-19.591 -1.247,-11.551c7.792,9.598 11.471,8.306 23.472,8.429c38.997,0.397 77.688,30.956 70.509,91.678c-1.286,-67.291 -49.035,-65.759 -49.442,-6c-0.977,-0.04 -16.505,-17.632 -18.479,-19.792l-3.364,-3.683Zm-45.723,2.594c1.242,0 2.44,0.202 3.56,0.574c-0.528,0.834 -0.834,1.824 -0.834,2.884c0,2.982 2.418,5.4 5.4,5.4c0.987,-0 1.91,-0.265 2.707,-0.726c0.29,1 0.447,2.054 0.447,3.149c0,6.23 -5.051,11.28 -11.28,11.28c-6.231,0 -11.283,-5.05 -11.283,-11.28c0,-6.231 5.052,-11.281 11.283,-11.281Zm91.446,0c-1.244,0 -2.442,0.202 -3.562,0.574c0.528,0.834 0.834,1.824 0.834,2.884c-0,2.982 -2.418,5.4 -5.4,5.4c-0.987,-0 -1.91,-0.265 -2.707,-0.726c-0.29,1 -0.447,2.054 -0.447,3.149c-0,6.23 5.051,11.28 11.282,11.28c6.229,0 11.281,-5.05 11.281,-11.28c-0,-6.231 -5.052,-11.281 -11.281,-11.281Z"/>
        <path d="M130.001,147.167c0.413,-0.177 8.813,-3.756 24.723,-10.462c-14.082,-15.369 -23.206,-25.194 -24.723,-26.826c-1.519,1.632 -10.643,11.457 -24.725,26.826c15.91,6.706 24.31,10.285 24.725,10.462Z" style="fill:#f99426;"/>
        <path d="M198.37,39.899c13.275,15.636 21.29,35.877 21.29,57.995c-0,49.519 -40.142,89.66 -89.659,89.66c-49.519,0 -89.661,-40.141 -89.661,-89.66c0,-22.118 8.015,-42.359 21.29,-57.995c-10.729,14.282 -17.088,32.037 -17.088,51.276c-0,47.196 38.261,85.458 85.459,85.458c47.196,-0 85.457,-38.262 85.457,-85.458c0,-19.239 -6.359,-36.994 -17.088,-51.276Z"/>
        <path d="M77.796,39.133c15.641,-15.639 35.621,-24.287 56.064,-25.956c-17.688,2.514 -34.738,10.57 -48.342,24.174c-33.373,33.373 -33.373,87.483 0,120.857c2.014,2.014 4.101,3.905 6.258,5.673c-50.182,-26.437 -52.165,-86.563 -13.98,-124.748Z"/>
    </g>
</svg>
